<svg xmlns="http://www.w3.org/2000/svg" width="250" height="140" viewBox="0 0 250 140" fill="#ffffff">
  <g clip-path="url(#clip0_2991_2)">
    <path d="M40.0039 48.6152H51.8892C54.2843 48.4797 56.6453 49.2323 58.5202 50.7289C59.3272 51.456 59.9626 52.3533 60.3804 53.356C60.7982 54.3586 60.9879 55.4416 60.936 56.5266C61.1008 58.0656 60.6684 59.6092 59.7281 60.8386C59.2113 61.4621 58.6143 62.0144 57.9526 62.4813L56.2616 63.2422C56.9497 63.3813 57.6245 63.5793 58.2787 63.8341C59.1305 64.3281 59.9386 64.8939 60.6944 65.5251C61.9022 66.4551 62.5182 68.1461 62.5182 70.598C62.546 71.7212 62.3402 72.838 61.914 73.8775C61.4878 74.9171 60.8504 75.8568 60.0421 76.6373C59.197 77.4457 58.198 78.0761 57.1046 78.491C56.0111 78.906 54.8455 79.0971 53.6768 79.053H40.0039V48.6152ZM47.6617 61.2976H50.1498C53.0004 61.2976 54.4256 60.0173 54.4256 57.4566C54.4256 54.896 53.0286 53.5996 50.2344 53.5674H47.6617V61.2976ZM47.6617 73.9076H50.5726C51.8602 74.0229 53.1463 73.6713 54.1961 72.9171C54.5952 72.5011 54.9009 72.0047 55.0925 71.461C55.2841 70.9173 55.3574 70.3389 55.3074 69.7646C55.3611 69.1961 55.2796 68.623 55.0697 68.0919C54.8598 67.5609 54.5274 67.0869 54.0995 66.7088C52.9728 65.9762 51.6339 65.6404 50.2948 65.7546H47.6617V73.9076Z" fill="#ffffff"></path>
    <path d="M79.5741 51.4048L86.5071 47.7812V79.1854H79.864V76.7697L79.103 77.6635C78.3711 78.3437 77.4961 78.8513 76.5424 79.1491C75.4675 79.5485 74.3312 79.7569 73.1846 79.7651C71.8749 79.8024 70.5746 79.5349 69.3861 78.9836C68.1976 78.4323 67.1534 77.6124 66.336 76.5885C64.4926 74.2768 63.5448 71.3777 63.6667 68.4234C63.5523 65.5182 64.5014 62.6709 66.336 60.4154C67.1823 59.3994 68.2482 58.5888 69.4534 58.0448C70.6585 57.5008 71.9715 57.2375 73.2933 57.275H73.9697C74.3005 57.2993 74.6282 57.3559 74.948 57.4441C75.5303 57.5436 76.0981 57.714 76.639 57.9514C77.1468 58.0801 77.6234 58.3102 78.0401 58.6277L79.562 59.896L79.5741 51.4048ZM70.8293 68.2181C70.7578 69.7082 71.2061 71.1769 72.0975 72.3731C72.5067 72.8793 73.0294 73.282 73.6233 73.5485C74.2172 73.8151 74.8655 73.9379 75.5157 73.9071C78.2213 73.9071 79.5741 72.1396 79.5741 68.6046C79.5961 67.6521 79.5477 66.6994 79.4291 65.7541C79.2486 65.0206 78.9014 64.3387 78.4146 63.7611C78.0292 63.3424 77.5506 63.0203 77.0176 62.8209C76.4846 62.6216 75.9122 62.5506 75.3466 62.6137C74.7174 62.6241 74.0985 62.7761 73.5361 63.0583C72.9736 63.3406 72.4819 63.746 72.0975 64.2442C71.2162 65.3762 70.7666 66.7849 70.8293 68.2181Z" fill="#ffffff"></path>
    <path d="M88.6211 48.6152H96.2789V60.9595L104.094 48.6152H112.971L102.536 63.037L113.479 79.1014H104.516L96.2789 65.6097V79.1014H88.6211V48.6152Z" fill="#ffffff"></path>
    <path d="M121.765 57.1189C123.29 57.0924 124.804 57.3739 126.218 57.9468C127.631 58.5196 128.914 59.3719 129.99 60.4526C131.074 61.5032 131.936 62.7609 132.525 64.1511C133.114 65.5412 133.417 67.0355 133.417 68.5452C133.417 70.0548 133.114 71.5491 132.525 72.9393C131.936 74.3294 131.074 75.5872 129.99 76.6378C127.811 78.8011 124.865 80.0152 121.795 80.0152C118.725 80.0152 115.779 78.8011 113.6 76.6378C112.519 75.5854 111.659 74.3271 111.073 72.9372C110.486 71.5473 110.184 70.0539 110.184 68.5452C110.184 67.0365 110.486 65.5431 111.073 64.1531C111.659 62.7632 112.519 61.5049 113.6 60.4526C114.668 59.3776 115.941 58.5285 117.343 57.9557C118.746 57.383 120.25 57.0984 121.765 57.1189ZM116.74 68.5331C116.692 69.9814 117.197 71.3937 118.153 72.4828C118.6 73.0012 119.158 73.4126 119.785 73.6865C120.412 73.9604 121.093 74.0898 121.777 74.065C122.458 74.0859 123.136 73.9572 123.762 73.688C124.388 73.4188 124.947 73.0157 125.4 72.5069C126.38 71.4206 126.896 69.9945 126.838 68.5331C126.886 67.0848 126.381 65.6725 125.425 64.5834C124.971 64.0693 124.414 63.6576 123.789 63.3756C123.164 63.0935 122.487 62.9477 121.801 62.9477C121.116 62.9477 120.438 63.0935 119.813 63.3756C119.188 63.6576 118.631 64.0693 118.178 64.5834C117.213 65.6689 116.699 67.0815 116.74 68.5331Z" fill="#ffffff"></path>
    <path d="M134.664 60.4888L141.464 56.8652V60.1264C141.855 59.6122 142.31 59.1496 142.817 58.7495L143.542 58.3147C143.908 58.1013 144.287 57.9117 144.677 57.747C145.615 57.3592 146.621 57.1621 147.636 57.1672C148.533 57.1581 149.423 57.3222 150.257 57.6503C150.96 57.8975 151.614 58.2654 152.19 58.7374C152.843 59.3637 153.43 60.0558 153.941 60.8028C154.69 59.6556 155.72 58.7198 156.934 58.0853C158.149 57.4508 159.505 57.1388 160.874 57.1793C161.851 57.1296 162.828 57.276 163.747 57.61C164.666 57.944 165.508 58.4588 166.225 59.1239C166.903 59.852 167.427 60.7103 167.763 61.6467C168.099 62.5831 168.242 63.5781 168.182 64.5713V79.0655H161.333V66.3348C161.35 65.8085 161.31 65.282 161.213 64.7646C161.054 64.3039 160.784 63.8892 160.428 63.5567C160.125 63.2938 159.771 63.0959 159.389 62.9754C159.007 62.8549 158.604 62.8143 158.205 62.8562C155.922 62.8562 154.787 64.064 154.787 66.4797V79.1018H148.023V66.5884C148.023 64.1123 146.924 62.8683 144.725 62.8683C142.527 62.8683 141.464 64.0761 141.464 66.4918V79.1018H134.664V60.4888Z" fill="#ffffff"></path>
    <path d="M40.0039 84.9355H41.103V88.088L43.8449 84.9355H45.1131L42.6974 87.7015L45.2097 91.7841H44.0019L42.0452 88.4021L41.103 89.4771V91.7841H40.0039V84.9355Z" fill="#ffffff"></path>
    <path d="M45.1484 89.2597C45.1484 87.5083 45.9698 86.6387 47.6245 86.6387C49.2793 86.6387 50.1127 87.5083 50.1127 89.2597C50.1127 91.0111 49.2793 91.8928 47.6245 91.8928C45.9698 91.8928 45.1484 91.0111 45.1484 89.2597ZM48.6874 90.4676C48.9262 90.1119 49.0409 89.6873 49.0136 89.2597C49.0446 88.8318 48.9297 88.406 48.6874 88.0519C48.5523 87.9096 48.3859 87.8006 48.2015 87.7336C48.017 87.6665 47.8195 87.6431 47.6245 87.6653C47.4297 87.645 47.2327 87.6692 47.0486 87.7362C46.8644 87.8031 46.6979 87.9111 46.5616 88.0519C46.3295 88.4101 46.2194 88.8338 46.2476 89.2597C46.2228 89.6853 46.3327 90.1079 46.5616 90.4676C46.6994 90.6062 46.8662 90.7127 47.0499 90.7796C47.2336 90.8464 47.4298 90.8718 47.6245 90.8541C47.8148 90.8814 48.0087 90.8663 48.1925 90.8099C48.3762 90.7535 48.5452 90.6573 48.6874 90.5279V90.4676Z" fill="#ffffff"></path>
    <path d="M50.875 86.7476H51.8775V87.279C52.3426 86.8717 52.9382 86.6446 53.5564 86.6389C53.8282 86.6279 54.0984 86.6861 54.3415 86.808C54.5398 86.9208 54.6965 87.0944 54.7884 87.3032C55.0242 87.0972 55.2939 86.9338 55.5856 86.8201C55.9046 86.6944 56.2453 86.6328 56.5881 86.6389C56.81 86.6188 57.0336 86.6486 57.2425 86.7259C57.4515 86.8032 57.6406 86.9261 57.796 87.0858C58.104 87.455 58.271 87.9215 58.267 88.4023V91.7843H57.1921V88.5714C57.215 88.2829 57.1336 87.9957 56.9626 87.7622C56.8579 87.6737 56.7368 87.6068 56.6062 87.5654C56.4756 87.5239 56.3381 87.5087 56.2016 87.5206C55.9778 87.524 55.7566 87.569 55.5494 87.6535C55.3483 87.7341 55.17 87.8626 55.03 88.0279C55.0515 88.2004 55.0515 88.3748 55.03 88.5473V91.7843H54.0275V88.5835C54.0482 88.2964 53.9808 88.0099 53.8342 87.7622C53.7471 87.6733 53.641 87.6054 53.5238 87.5635C53.4067 87.5217 53.2815 87.507 53.1578 87.5206C52.6935 87.5531 52.2602 87.7654 51.95 88.1125V91.736H50.875V86.7476Z" fill="#ffffff"></path>
    <path d="M59.207 86.7476H60.2095L60.2699 87.279C60.7302 86.8716 61.3221 86.6443 61.9368 86.6389C62.2086 86.6279 62.4787 86.6861 62.7219 86.808C62.9201 86.9208 63.0768 87.0944 63.1688 87.3032C63.4046 87.0972 63.6743 86.9338 63.966 86.8201C64.285 86.6944 64.6256 86.6328 64.9685 86.6389C65.1904 86.6188 65.4139 86.6486 65.6229 86.7259C65.8318 86.8032 66.0209 86.9261 66.1763 87.0858C66.4584 87.4648 66.5994 87.9305 66.5749 88.4023V91.7843H65.4999V88.5714C65.5229 88.2829 65.4414 87.9957 65.2704 87.7622C65.1658 87.6737 65.0447 87.6068 64.9141 87.5654C64.7835 87.5239 64.646 87.5087 64.5095 87.5206C64.2857 87.524 64.0645 87.569 63.8573 87.6535C63.6562 87.7341 63.4779 87.8626 63.3379 88.0279C63.3802 88.1977 63.4005 88.3723 63.3983 88.5473V91.7843H62.3837V88.5835C62.4102 88.296 62.3424 88.0077 62.1904 87.7622C62.1033 87.6733 61.9972 87.6054 61.88 87.5635C61.7629 87.5217 61.6377 87.507 61.514 87.5206C61.0497 87.5531 60.6164 87.7654 60.3062 88.1125V91.736H59.207V86.7476Z" fill="#ffffff"></path>
    <path d="M67.9285 91.3862C67.5982 90.9736 67.4344 90.4521 67.4695 89.9247V86.748H68.5687V89.9247C68.5466 90.2244 68.637 90.5215 68.8223 90.7581C69.0508 90.942 69.3385 91.0365 69.6316 91.0238C69.8812 91.0207 70.1277 90.9673 70.3563 90.8668C70.5833 90.7613 70.7882 90.6138 70.9602 90.432V86.8084H72.0473V91.7848H71.0568L70.9964 91.2654C70.5026 91.6789 69.877 91.9017 69.233 91.8935C68.9917 91.9094 68.7498 91.8722 68.5245 91.7845C68.2991 91.6969 68.0957 91.5609 67.9285 91.3862Z" fill="#ffffff"></path>
    <path d="M73.0522 86.7481H74.0547V87.2795C74.2866 87.0805 74.5526 86.925 74.8398 86.8206C75.1475 86.6992 75.4754 86.6377 75.8061 86.6394C76.0492 86.6183 76.2941 86.6482 76.525 86.7272C76.7559 86.8063 76.9677 86.9327 77.1468 87.0984C77.4663 87.5011 77.6178 88.0118 77.5696 88.5236V91.7848H76.4946V88.5719C76.5171 88.2779 76.4311 87.9857 76.253 87.7506C76.013 87.5739 75.7162 87.4922 75.4196 87.5211C75.1693 87.5184 74.9216 87.572 74.6949 87.6781C74.4674 87.7774 74.2621 87.9211 74.091 88.1009V91.7244H73.0039L73.0522 86.7481Z" fill="#ffffff"></path>
    <path d="M79.295 87.6298H78.5703L78.6669 86.7481H80.3821V91.7848H79.295V87.6298ZM79.1984 84.7793H80.4062V85.7335H79.1984V84.7793Z" fill="#ffffff"></path>
    <path d="M81.3828 84.6211H82.482V88.764L84.4749 86.7469H85.6828L83.7381 88.7761L85.9002 91.7836H84.6923L83.1221 89.3679L82.494 90.0081V91.7836H81.3949L81.3828 84.6211Z" fill="#ffffff"></path>
    <path d="M86.4319 91.4943C86.2597 91.3471 86.1258 91.1602 86.0416 90.9499C85.9575 90.7395 85.9256 90.5119 85.9487 90.2865C85.9326 90.0628 85.9665 89.8383 86.048 89.6294C86.1295 89.4205 86.2565 89.2323 86.4198 89.0786C86.8237 88.7603 87.3323 88.6052 87.8451 88.6438H89.379V88.523C89.3913 88.3237 89.3539 88.1245 89.2703 87.9432C89.2294 87.8696 89.1742 87.8049 89.1078 87.753C89.0413 87.7011 88.9652 87.6631 88.8838 87.6413C88.6253 87.5648 88.3559 87.5322 88.0866 87.5447C87.5476 87.5384 87.0118 87.6284 86.5043 87.8104V86.9528C86.7654 86.8486 87.0366 86.7717 87.3136 86.7233C87.6322 86.6637 87.9558 86.6353 88.2799 86.6388C88.8489 86.5987 89.4136 86.7613 89.8742 87.0978C90.0677 87.2832 90.2169 87.5097 90.311 87.7606C90.4051 88.0115 90.4416 88.2803 90.4178 88.5472V91.7842H89.524L89.4515 91.2769C89.2424 91.4819 88.9909 91.6385 88.7147 91.7359C88.3756 91.8462 88.0204 91.8993 87.6639 91.8929C87.2178 91.9187 86.7783 91.7765 86.4319 91.4943ZM88.763 90.8904C89.0029 90.779 89.2137 90.6136 89.379 90.4073V89.5255H87.8692C87.6205 89.5087 87.3735 89.5768 87.1687 89.7188C87.0964 89.801 87.0412 89.8967 87.0059 90.0003C86.9707 90.104 86.9562 90.2135 86.9633 90.3227C86.9536 90.4299 86.9706 90.5379 87.0127 90.6369C87.0549 90.736 87.1209 90.8231 87.2049 90.8904C87.4192 91.0192 87.6682 91.0783 87.9175 91.0595C88.2081 91.0632 88.4962 91.0056 88.763 90.8904Z" fill="#ffffff"></path>
    <path d="M91.8577 91.4703C91.5825 91.1306 91.4484 90.6982 91.4832 90.2624V87.6535H90.7344V86.7476H91.4349V85.5397L92.522 85.1895V86.6993H93.7298L93.6574 87.6052H92.4495V90.1779C92.4371 90.2856 92.4467 90.3947 92.4779 90.4985C92.509 90.6023 92.561 90.6987 92.6307 90.7818C92.8085 90.9216 93.0338 90.9866 93.2588 90.963C93.453 90.9608 93.6452 90.924 93.8265 90.8543V91.6756C93.5231 91.7958 93.1985 91.8534 92.8723 91.8447C92.4992 91.8506 92.1374 91.7171 91.8577 91.4703Z" fill="#ffffff"></path>
    <path d="M95.3337 87.6298H94.6211L94.7177 86.7481H96.4329V91.7848H95.3337V87.6298ZM95.2492 84.7793H96.457V85.7335H95.2492V84.7793Z" fill="#ffffff"></path>
    <path d="M97.2305 89.2597C97.2305 87.5083 98.0639 86.6387 99.6462 86.6387C101.228 86.6387 102.134 87.5083 102.134 89.2597C102.134 91.0111 101.313 91.8928 99.6462 91.8928C97.9793 91.8928 97.2305 91.0111 97.2305 89.2597ZM100.782 90.4676C101.011 90.1079 101.12 89.6853 101.096 89.2597C101.124 88.8338 101.014 88.4101 100.782 88.0519C100.643 87.9101 100.475 87.8016 100.289 87.7347C100.102 87.6677 99.9033 87.644 99.7066 87.6653C99.5132 87.6402 99.3166 87.6622 99.1337 87.7295C98.9507 87.7968 98.7867 87.9074 98.6557 88.0519C98.4178 88.4075 98.3071 88.8332 98.3417 89.2597C98.3117 89.6858 98.422 90.11 98.6557 90.4676C98.7902 90.6074 98.9546 90.7148 99.1367 90.7818C99.3187 90.8487 99.5136 90.8734 99.7066 90.8541C99.8987 90.8807 100.094 90.8653 100.28 90.809C100.465 90.7527 100.637 90.6568 100.782 90.5279V90.4676Z" fill="#ffffff"></path>
    <path d="M102.994 86.7481H104.02V87.2795C104.254 87.083 104.519 86.9277 104.805 86.8206C105.113 86.6992 105.441 86.6377 105.772 86.6394C106.015 86.6183 106.26 86.6482 106.491 86.7272C106.721 86.8063 106.933 86.9327 107.112 87.0984C107.432 87.5011 107.583 88.0118 107.535 88.5236V91.7848H106.436V88.5719C106.462 88.2794 106.38 87.9874 106.207 87.7506C105.963 87.571 105.662 87.4891 105.361 87.5211C105.111 87.5184 104.863 87.572 104.636 87.6781C104.411 87.7805 104.206 87.9239 104.032 88.1009V91.7244H102.945L102.994 86.7481Z" fill="#ffffff"></path>
    <path d="M111.75 86.748H112.885L114.214 90.6615L115.555 86.748H116.678L114.806 91.7848H113.683L111.75 86.748Z" fill="#ffffff"></path>
    <path d="M117.451 91.2281C117.208 90.9643 117.023 90.6532 116.907 90.3144C116.79 89.9756 116.745 89.6163 116.774 89.2593C116.729 88.5644 116.939 87.877 117.366 87.3267C117.588 87.0888 117.861 86.9035 118.164 86.7844C118.467 86.6653 118.793 86.6153 119.117 86.6382C119.413 86.619 119.708 86.6606 119.987 86.7603C120.265 86.86 120.52 87.0158 120.736 87.218C121.121 87.6476 121.321 88.212 121.292 88.7882V89.7182H117.813C117.817 89.9114 117.863 90.1014 117.949 90.2747C118.034 90.4479 118.157 90.6002 118.308 90.7208C118.701 90.9437 119.151 91.0446 119.601 91.0106C119.849 91.0117 120.096 90.9833 120.337 90.9261C120.564 90.8848 120.786 90.8242 121.002 90.7449V91.5904C120.49 91.8047 119.938 91.9076 119.383 91.8924C119.033 91.9174 118.681 91.8715 118.349 91.7573C118.017 91.6432 117.711 91.4631 117.451 91.2281ZM120.337 88.9694V88.6191C120.349 88.4695 120.329 88.3192 120.279 88.1778C120.229 88.0363 120.15 87.9069 120.048 87.7978C119.925 87.6922 119.783 87.6121 119.63 87.5623C119.476 87.5126 119.314 87.494 119.154 87.5079C118.967 87.4889 118.778 87.5092 118.599 87.5675C118.42 87.6257 118.255 87.7206 118.115 87.8461C117.883 88.1721 117.775 88.5708 117.813 88.9694H120.337Z" fill="#ffffff"></path>
    <path d="M122.137 86.7474H123.139V87.3271C123.394 87.1597 123.665 87.0181 123.948 86.9044C124.249 86.7841 124.56 86.6951 124.879 86.6387V87.5204C124.563 87.5873 124.252 87.6761 123.948 87.7861C123.671 87.8683 123.406 87.9904 123.163 88.1485V91.772H122.137V86.7474Z" fill="#ffffff"></path>
    <path d="M125.17 91.4943C125.001 91.3446 124.871 91.157 124.789 90.9471C124.707 90.7371 124.676 90.5107 124.699 90.2865C124.682 90.0628 124.716 89.8383 124.798 89.6294C124.879 89.4205 125.006 89.2323 125.17 89.0786C125.574 88.7603 126.082 88.6052 126.595 88.6438H128.177V88.523C128.185 88.3252 128.152 88.1278 128.081 87.9432C128.04 87.8696 127.984 87.8049 127.918 87.753C127.852 87.7011 127.775 87.6631 127.694 87.6413C127.432 87.5635 127.158 87.5308 126.885 87.5447C126.35 87.5385 125.818 87.6285 125.315 87.8104V86.9528C125.572 86.8501 125.839 86.7732 126.112 86.7233C126.434 86.6642 126.762 86.6358 127.09 86.6388C127.659 86.5987 128.224 86.7613 128.684 87.0978C128.878 87.2832 129.027 87.5097 129.121 87.7606C129.215 88.0115 129.252 88.2803 129.228 88.5472V91.7842H128.298L128.177 91.2769C127.968 91.4819 127.717 91.6385 127.44 91.7359C127.101 91.8443 126.746 91.8973 126.39 91.8929C125.948 91.9101 125.516 91.7687 125.17 91.4943ZM127.513 90.8904C127.751 90.7818 127.959 90.6158 128.117 90.4073V89.5255H126.619C126.37 89.5067 126.122 89.575 125.918 89.7188C125.842 89.7985 125.783 89.8934 125.745 89.9975C125.708 90.1016 125.693 90.2124 125.701 90.3227C125.693 90.4297 125.711 90.537 125.753 90.6357C125.795 90.7344 125.86 90.8217 125.943 90.8904C126.163 91.014 126.415 91.0727 126.667 91.0595C126.958 91.0618 127.246 91.0043 127.513 90.8904Z" fill="#ffffff"></path>
    <path d="M130.111 86.7481H131.113V87.2795C131.347 87.083 131.613 86.9277 131.898 86.8206C132.206 86.6992 132.534 86.6377 132.865 86.6394C133.108 86.6183 133.353 86.6482 133.584 86.7272C133.814 86.8063 134.026 86.9327 134.205 87.0984C134.525 87.5011 134.676 88.0118 134.628 88.5236V91.7848H133.553V88.5719C133.579 88.2794 133.498 87.9874 133.324 87.7506C133.081 87.571 132.779 87.4891 132.478 87.5211C132.228 87.5184 131.98 87.572 131.753 87.6781C131.528 87.7805 131.323 87.9239 131.15 88.1009V91.7244H130.062L130.111 86.7481Z" fill="#ffffff"></path>
    <path d="M136.305 91.4703C136.03 91.1306 135.896 90.6982 135.931 90.2624V87.6535H135.23V86.7476H135.931V85.5397L137.018 85.1895V86.6993H138.226L138.153 87.6052H136.946V90.1779C136.933 90.2856 136.943 90.3947 136.974 90.4985C137.005 90.6023 137.057 90.6987 137.127 90.7818C137.305 90.9216 137.53 90.9866 137.755 90.963C137.949 90.9598 138.141 90.9231 138.323 90.8543V91.6756C138.019 91.7958 137.695 91.8534 137.368 91.8447C136.979 91.863 136.598 91.7287 136.305 91.4703Z" fill="#ffffff"></path>
    <path d="M138.469 86.7472H139.556L140.389 90.3707L141.319 87.3269V86.7109H142.153L143.179 90.3345L144.001 86.7109H145.088L143.88 91.7839H142.841L141.839 88.4865L140.8 91.7839H139.761L138.469 86.7472Z" fill="#ffffff"></path>
    <path d="M145.219 89.2597C145.219 87.5083 146.052 86.6387 147.634 86.6387C149.217 86.6387 150.123 87.5083 150.123 89.2597C150.123 91.0111 149.301 91.8928 147.634 91.8928C145.968 91.8928 145.219 91.0111 145.219 89.2597ZM148.77 90.4676C148.999 90.1079 149.109 89.6853 149.084 89.2597C149.112 88.8338 149.002 88.4101 148.77 88.0519C148.632 87.9101 148.463 87.8016 148.277 87.7347C148.091 87.6677 147.892 87.644 147.695 87.6653C147.502 87.6402 147.305 87.6622 147.122 87.7295C146.939 87.7968 146.775 87.9074 146.644 88.0519C146.406 88.4075 146.295 88.8332 146.33 89.2597C146.3 89.6858 146.41 90.11 146.644 90.4676C146.778 90.6074 146.943 90.7148 147.125 90.7818C147.307 90.8487 147.502 90.8734 147.695 90.8541C147.887 90.8807 148.083 90.8653 148.268 90.809C148.454 90.7527 148.625 90.6568 148.77 90.5279V90.4676Z" fill="#ffffff"></path>
    <path d="M150.98 86.7474H151.983L152.043 87.3271C152.298 87.1597 152.57 87.0181 152.853 86.9044C153.153 86.7841 153.464 86.6951 153.783 86.6387V87.5204C153.467 87.5873 153.156 87.6761 152.853 87.7861C152.575 87.8683 152.31 87.9904 152.068 88.1485V91.772H150.98V86.7474Z" fill="#ffffff"></path>
    <path d="M155.196 91.4703C154.921 91.1306 154.787 90.6982 154.822 90.2624V87.6535H154.109V86.7476H154.822V85.5397L155.897 85.1895V86.6993H157.105L157.032 87.6052H155.957V90.1779C155.944 90.2865 155.955 90.3967 155.988 90.5009C156.021 90.6051 156.077 90.701 156.151 90.7818C156.325 90.9197 156.546 90.9846 156.767 90.963C156.965 90.9598 157.161 90.923 157.346 90.8543V91.6756C157.042 91.7937 156.718 91.8511 156.392 91.8447C156.178 91.8749 155.959 91.8569 155.752 91.7921C155.545 91.7274 155.356 91.6174 155.196 91.4703Z" fill="#ffffff"></path>
    <path d="M158.373 91.2281C158.13 90.9643 157.945 90.6532 157.828 90.3144C157.712 89.9756 157.667 89.6163 157.696 89.2593C157.651 88.5644 157.861 87.877 158.288 87.3267C158.51 87.0888 158.783 86.9035 159.086 86.7844C159.389 86.6653 159.715 86.6153 160.039 86.6382C160.334 86.619 160.63 86.6606 160.909 86.7603C161.187 86.86 161.442 87.0158 161.658 87.218C162.043 87.6476 162.243 88.212 162.213 88.7882V89.7182H158.723C158.727 89.9114 158.773 90.1014 158.859 90.2747C158.944 90.4479 159.067 90.6002 159.218 90.7208C159.61 90.9437 160.06 91.0446 160.51 91.0106C160.758 91.0117 161.006 90.9833 161.247 90.9261C161.473 90.8848 161.696 90.8242 161.912 90.7449V91.5904C161.4 91.8047 160.848 91.9076 160.293 91.8924C159.945 91.9157 159.595 91.869 159.265 91.7549C158.936 91.6408 158.632 91.4616 158.373 91.2281ZM161.259 88.9694V88.6191C161.271 88.4695 161.251 88.3192 161.201 88.1778C161.151 88.0363 161.072 87.9069 160.969 87.7978C160.847 87.6922 160.705 87.6121 160.552 87.5623C160.398 87.5126 160.236 87.494 160.076 87.5079C159.888 87.4889 159.699 87.5092 159.521 87.5675C159.342 87.6257 159.177 87.7206 159.037 87.8461C158.805 88.1721 158.697 88.5708 158.735 88.9694H161.259Z" fill="#ffffff"></path>
    <path d="M162.998 86.7481H164V87.2795C164.236 87.0803 164.506 86.9249 164.797 86.8206C165.1 86.6981 165.425 86.6365 165.751 86.6394C165.995 86.6183 166.239 86.6482 166.47 86.7272C166.701 86.8063 166.913 86.9327 167.092 87.0984C167.412 87.5011 167.563 88.0118 167.515 88.5236V91.7848H166.44V88.5719C166.466 88.2794 166.384 87.9874 166.21 87.7506C165.967 87.571 165.666 87.4891 165.365 87.5211C165.115 87.5184 164.867 87.572 164.64 87.6781C164.415 87.7805 164.21 87.9239 164.036 88.1009V91.7244H162.949L162.998 86.7481Z" fill="#ffffff"></path>
    <path d="M134.676 34.0488V53.2536L140.812 49.9683V40.2572H203.849V85.9622H195.479L193.752 95.166L181.238 85.9622H171.213V92.1827H179.245L197.979 105.952L200.564 92.1827H209.997V34.0488H134.676Z" fill="#ffffff"></path>
  </g>
  <defs>
    <clipPath id="clip0_2991_2">
      <rect width="170" height="71.9033" fill="white" transform="translate(40 34.0488)"></rect>
    </clipPath>
  </defs>
</svg>
