<svg id="Ebene_1" xmlns="http://www.w3.org/2000/svg" fill="#ffffff" width="249.47" height="48.94" viewBox="0 0 249.47 48.94"><g><path d="M10.82,21.77l-4.27-7.84-1.35,2.25v5.59H0V.35H5.2V9.41L10.5,.35h6.04l-6.71,10.02,7.13,11.4h-6.14Z" fill="ffffff"/><path d="M16.44,11.08c0-6.46,3.57-11.08,9.35-11.08s9.35,4.62,9.35,11.08-3.57,11.08-9.35,11.08-9.35-4.62-9.35-11.08Zm13.43,0c0-3.73-1.45-6.49-4.08-6.49s-4.05,2.76-4.05,6.49,1.45,6.49,4.05,6.49,4.08-2.79,4.08-6.49Z" fill="ffffff"/><path d="M53.53,21.77V9.05l-4.34,12.72h-2.02l-4.3-12.72v12.72h-5.2V.35h6.91l3.63,10.7L51.87,.35h6.84V21.77h-5.18Z" fill="ffffff"/><path d="M77.97,21.77V9.05l-4.34,12.72h-2.02l-4.3-12.72v12.72h-5.2V.35h6.91l3.63,10.7L76.31,.35h6.84V21.77h-5.18Z" fill="ffffff"/><path d="M86.55,14.16V.35h5.24V14.19c0,2.15,1.12,3.4,3.18,3.4s3.15-1.25,3.15-3.4V.35h5.24V14.16c0,5.08-3.28,8-8.38,8s-8.42-2.92-8.42-8h-.01Z" fill="ffffff"/><path d="M118.44,21.77l-6.49-11.27v11.27h-5.2V.35h5.3l6.13,10.73V.35h5.17V21.77h-4.91Z" fill="ffffff"/><path d="M126.79,21.77V.35h5.2V21.77h-5.2Z" fill="ffffff"/><path d="M146.22,21.77l-4.27-7.84-1.35,2.25v5.59h-5.2V.35h5.2V9.41L145.9,.35h6.04l-6.71,10.02,7.13,11.4h-6.14Z" fill="ffffff"/><path d="M165.24,21.77l-.8-3.28h-6.07l-.8,3.28h-5.62L158.28,.35h6.26l6.33,21.42h-5.63Zm-3.82-16.03l-2.02,8.22h4.02l-1.99-8.22h-.01Z" fill="ffffff"/><path d="M174.36,21.77V4.88h-4.59V.35h14.36V4.88h-4.56V21.77h-5.21Z" fill="ffffff"/><path d="M186.47,21.77V.35h5.2V21.77h-5.2Z" fill="ffffff"/><path d="M194.17,11.08c0-6.46,3.57-11.08,9.35-11.08s9.35,4.62,9.35,11.08-3.57,11.08-9.35,11.08-9.35-4.62-9.35-11.08Zm13.43,0c0-3.73-1.45-6.49-4.08-6.49s-4.05,2.76-4.05,6.49,1.45,6.49,4.05,6.49,4.08-2.79,4.08-6.49Z" fill="ffffff"/><path d="M227.09,21.77l-6.49-11.27v11.27h-5.2V.35h5.3l6.13,10.73V.35h5.17V21.77h-4.91Z" fill="ffffff"/><path d="M234.06,19.36l2.47-3.98c1.25,1.35,3.15,2.28,5.24,2.28,1.51,0,2.44-.77,2.44-1.83,0-3.08-9.51-1.8-9.51-9.25,0-3.44,2.67-6.58,7.52-6.58,2.7,0,5.11,.87,6.87,2.44l-2.41,3.85c-1.32-1.22-3.02-1.77-4.66-1.77-1.32,0-2.02,.67-2.02,1.64,0,2.83,9.47,1.96,9.47,9.15,0,4.08-2.83,6.84-7.68,6.84-3.47,0-5.94-1.06-7.74-2.79h0Z" fill="ffffff"/></g><g><path d="M11.14,48.53l-6.26-9.44-1.77,2.57v6.87H.54V27.11H3.11v11.11l7.48-11.11h3.02l-7.16,10.18,7.77,11.24h-3.08Z" fill="ffffff"/><path d="M14.96,37.83c0-6.2,2.89-11.08,8.09-11.08s8.12,4.88,8.12,11.08-2.92,11.08-8.12,11.08-8.09-4.88-8.09-11.08Zm13.59,0c0-4.95-1.93-8.8-5.49-8.8s-5.46,3.85-5.46,8.8,1.93,8.8,5.46,8.8,5.49-3.92,5.49-8.8Z" fill="ffffff"/><path d="M46.34,48.53l-8.83-15.96v15.96h-2.57V27.11h2.57l8.74,15.64v-15.64h2.57v21.42h-2.48Z" fill="ffffff"/><path d="M52.57,37.83c0-6.62,3.31-11.08,8.32-11.08,3.15,0,5.11,1.77,6.36,4.05l-2.06,1.06c-.9-1.67-2.34-2.83-4.3-2.83-3.44,0-5.69,3.56-5.69,8.8s2.25,8.8,5.69,8.8c1.8,0,3.24-.87,4.01-1.8v-5.01h-5.11v-2.25h7.55v8.22c-1.57,1.96-3.76,3.15-6.46,3.15-5.01,0-8.32-4.5-8.32-11.11h.01Z" fill="ffffff"/><path d="M81.12,48.53l-4.11-8.58h-3.08v8.58h-2.57V27.11h6.55c3.44,0,5.88,2.47,5.88,6.39s-2.15,5.69-4.27,6.07l4.5,8.96h-2.9Zm.03-15c0-2.44-1.32-4.18-3.53-4.18h-3.69v8.35h3.69c2.22,0,3.53-1.73,3.53-4.18h0Z" fill="ffffff"/><path d="M87.7,48.53V27.11h11.02v2.25h-8.45v7.1h8.22v2.25h-8.22v7.55h8.45v2.28h-11.02Z" fill="ffffff"/><path d="M101.19,46.21l1.41-1.96c1.09,1.32,2.89,2.38,4.98,2.38,2.7,0,3.92-1.67,3.92-3.5,0-5.2-9.67-3.85-9.67-10.76,0-3.28,2.57-5.62,6.13-5.62,2.38,0,4.3,.8,5.72,2.25l-1.35,1.93c-1.16-1.29-2.73-1.89-4.43-1.89-1.96,0-3.47,1.28-3.47,3.21,0,4.53,9.67,3.53,9.67,10.73,0,3.15-2.09,5.94-6.52,5.94-2.79,0-4.95-1.06-6.39-2.7h0Z" fill="ffffff"/><path d="M116.29,46.21l1.41-1.96c1.09,1.32,2.89,2.38,4.98,2.38,2.7,0,3.92-1.67,3.92-3.5,0-5.2-9.67-3.85-9.67-10.76,0-3.28,2.57-5.62,6.13-5.62,2.38,0,4.3,.8,5.72,2.25l-1.35,1.93c-1.16-1.29-2.73-1.89-4.43-1.89-1.96,0-3.47,1.28-3.47,3.21,0,4.53,9.67,3.53,9.67,10.73,0,3.15-2.09,5.94-6.52,5.94-2.79,0-4.95-1.06-6.39-2.7h0Z" fill="ffffff"/></g><path d="M138.68,39.11v-2.06h21.15v2.06h-21.15Z" fill="ffffff"/><g><path d="M169.38,48.54v-4.18c8.22-7.39,9.47-8.64,9.47-10.7,0-1.35-1.06-2.28-2.54-2.28-1.86,0-3.34,.8-4.59,2.28l-3.02-3.31c1.93-2.34,4.66-3.57,7.71-3.57,4.53,0,7.68,2.7,7.68,6.81,0,3.08-1.9,5.62-6.97,10.41h7.13v4.53h-14.87Z" fill="ffffff"/><path d="M186.11,37.84c0-5.68,2.54-11.05,8.03-11.05s8,5.36,8,11.05-2.51,11.08-8,11.08-8.03-5.4-8.03-11.08Zm10.76,0c0-4.11-.67-6.46-2.73-6.46s-2.76,2.34-2.76,6.46,.67,6.49,2.76,6.49,2.73-2.41,2.73-6.49Z" fill="ffffff"/><path d="M209.27,48.54v-14.77l-3.21,3.28-2.96-3.08,6.87-6.84h4.5v21.42h-5.2Z" fill="ffffff"/><path d="M216.98,42.98c0-2.47,1.77-4.63,4.02-5.49-2.09-.77-3.73-2.47-3.73-5.04,0-4.01,3.89-5.65,7.61-5.65s7.61,1.64,7.61,5.65c0,2.57-1.67,4.27-3.76,5.04,2.25,.87,4.05,3.02,4.05,5.46,0,3.95-3.4,5.97-7.9,5.97s-7.9-1.99-7.9-5.94h0Zm10.6-.71c0-1.64-1.83-2.54-2.7-2.67-.9,.13-2.7,1.03-2.7,2.67,0,1.41,1.16,2.22,2.7,2.22s2.7-.8,2.7-2.22Zm-.29-8.93c0-1.32-.93-2.12-2.41-2.12s-2.41,.8-2.41,2.12c0,1.41,1.61,2.12,2.41,2.31,.8-.19,2.41-.9,2.41-2.31Z" fill="ffffff"/></g></svg>