<svg width="204" height="40" viewBox="0 0 204 40" fill="none" xmlns="http://www.w3.org/2000/svg">
<g clip-path="url(#clip0_2779_26)">
<path d="M14.204 18.0896L8.40434 8.81526L13.8644 0.664325H8.95296L4.64237 8.03151V0.664325H0.410156V18.0896H4.64237V13.5438L5.73961 11.7151L9.21421 18.0896H14.204Z" fill="white"/>
<path d="M21.3894 18.4031C26.0918 18.4031 28.9917 14.6411 28.9917 9.39C28.9917 4.13892 26.0918 0.376953 21.3894 0.376953C16.6869 0.376953 13.7871 4.13892 13.7871 9.39C13.7871 14.6411 16.6869 18.4031 21.3894 18.4031ZM21.3894 14.6672C19.2733 14.6672 18.0977 12.3944 18.0977 9.39C18.0977 6.35953 19.2733 4.1128 21.3894 4.1128C23.5316 4.1128 24.7072 6.35953 24.7072 9.39C24.7072 12.3944 23.5316 14.6672 21.3894 14.6672Z" fill="white"/>
<path d="M48.1624 18.0896V0.664325H42.5978L39.6196 9.36388L36.6675 0.664325H31.0506V18.0896H35.2829V7.74414L38.7836 18.0896H40.4294L43.9563 7.74414V18.0896H48.1624Z" fill="white"/>
<path d="M68.0366 18.0896V0.664325H62.472L59.4938 9.36388L56.5417 0.664325H50.9249V18.0896H55.1571V7.74414L58.6578 18.0896H60.3037L63.8305 7.74414V18.0896H68.0366Z" fill="white"/>
<path d="M77.6438 18.4031C81.7976 18.4031 84.4623 16.0257 84.4623 11.898V0.664325H80.204V11.9241C80.204 13.6745 79.2896 14.6933 77.6438 14.6933C75.9718 14.6933 75.0574 13.6745 75.0574 11.9241V0.664325H70.7991V11.898C70.7991 16.0257 73.4899 18.4031 77.6438 18.4031Z" fill="white"/>
<path d="M100.736 18.0896V0.664325H96.5295V9.39L91.5397 0.664325H87.2291V18.0896H91.4613V8.91976L96.7385 18.0896H100.736Z" fill="white"/>
<path d="M107.764 18.0896V0.664325H103.532V18.0896H107.764Z" fill="white"/>
<path d="M124.316 18.0896L118.516 8.81526L123.976 0.664325H119.065L114.754 8.03151V0.664325H110.522V18.0896H114.754V13.5438L115.851 11.7151L119.326 18.0896H124.316Z" fill="white"/>
<path d="M139.369 18.0896L134.222 0.664325H129.128L123.981 18.0896H128.553L129.206 15.4248H134.144L134.797 18.0896H139.369ZM133.308 11.7412H130.042L131.688 5.05329L133.308 11.7412Z" fill="white"/>
<path d="M146.432 18.0896V4.34792H150.141V0.664325H138.463V4.34792H142.199V18.0896H146.432Z" fill="white"/>
<path d="M156.289 18.0896V0.664325H152.056V18.0896H156.289Z" fill="white"/>
<path d="M165.918 18.4031C170.62 18.4031 173.52 14.6411 173.52 9.39C173.52 4.13892 170.62 0.376953 165.918 0.376953C161.215 0.376953 158.315 4.13892 158.315 9.39C158.315 14.6411 161.215 18.4031 165.918 18.4031ZM165.918 14.6672C163.801 14.6672 162.626 12.3944 162.626 9.39C162.626 6.35953 163.801 4.1128 165.918 4.1128C168.06 4.1128 169.235 6.35953 169.235 9.39C169.235 12.3944 168.06 14.6672 165.918 14.6672Z" fill="white"/>
<path d="M189.085 18.0896V0.664325H184.879V9.39L179.889 0.664325H175.579V18.0896H179.811V8.91976L185.088 18.0896H189.085Z" fill="white"/>
<path d="M197.054 18.4031C200.999 18.4031 203.298 16.1563 203.298 12.8385C203.298 6.98652 195.591 7.69189 195.591 5.39291C195.591 4.60917 196.166 4.06055 197.237 4.06055C198.569 4.06055 199.954 4.50467 201.025 5.49741L202.984 2.36244C201.547 1.08232 199.588 0.376953 197.394 0.376953C193.449 0.376953 191.28 2.93718 191.28 5.73253C191.28 11.7935 199.013 10.7485 199.013 13.2565C199.013 14.1186 198.256 14.7456 197.028 14.7456C195.33 14.7456 193.788 13.988 192.77 12.8907L190.758 16.1302C192.221 17.5409 194.233 18.4031 197.054 18.4031Z" fill="white"/>
<path d="M11.9807 39.8552L5.65852 30.7115L11.4843 22.43H9.02862L2.94154 31.4691V22.43H0.851562V39.8552H2.94154V34.2645L4.37841 32.1745L9.47274 39.8552H11.9807Z" fill="white"/>
<path d="M19.1312 40.1687C23.3634 40.1687 25.7407 36.1977 25.7407 31.1556C25.7407 26.1135 23.3634 22.1426 19.1312 22.1426C14.8989 22.1426 12.5477 26.1135 12.5477 31.1556C12.5477 36.1977 14.8989 40.1687 19.1312 40.1687ZM19.1312 38.3138C16.2574 38.3138 14.6899 35.1266 14.6899 31.1556C14.6899 27.1324 16.2574 23.9974 19.1312 23.9974C22.031 23.9974 23.5985 27.1324 23.5985 31.1556C23.5985 35.1266 22.031 38.3138 19.1312 38.3138Z" fill="white"/>
<path d="M40.0736 39.8552V22.43H37.9836V35.1527L30.8777 22.43H28.7877V39.8552H30.8777V26.8712L38.062 39.8552H40.0736Z" fill="white"/>
<path d="M49.9035 40.1948C52.098 40.1948 53.8745 39.2282 55.1546 37.6346V30.9466H49.0152V32.7754H53.1691V36.8508C52.5421 37.6084 51.3665 38.3138 49.9035 38.3138C47.1081 38.3138 45.2794 35.3878 45.2794 31.1556C45.2794 26.8973 47.1081 23.9974 49.9035 23.9974C51.4971 23.9974 52.6727 24.9379 53.4042 26.2964L55.0762 25.4343C54.0573 23.5794 52.4637 22.1426 49.9035 22.1426C45.828 22.1426 43.1372 25.7739 43.1372 31.1556C43.1372 36.5373 45.828 40.1948 49.9035 40.1948Z" fill="white"/>
<path d="M68.7009 39.8552L65.0434 32.5664C66.7676 32.2529 68.518 30.7376 68.518 27.6288C68.518 24.4416 66.5325 22.43 63.7372 22.43H58.4077V39.8552H60.4977V32.8799H63.0057L66.3496 39.8552H68.7009ZM63.502 31.0511H60.4977V24.2587H63.502C65.3046 24.2587 66.3758 25.6694 66.3758 27.6549C66.3758 29.6404 65.3046 31.0511 63.502 31.0511Z" fill="white"/>
<path d="M80.6605 39.8552V38.0003H73.7897V31.861H80.4776V30.0323H73.7897V24.2587H80.6605V22.43H71.6997V39.8552H80.6605Z" fill="white"/>
<path d="M87.8693 40.1687C91.4745 40.1687 93.1726 37.8958 93.1726 35.3356C93.1726 29.4836 85.3091 30.2935 85.3091 26.6099C85.3091 25.0424 86.5369 23.9974 88.1306 23.9974C89.5152 23.9974 90.7953 24.4938 91.7358 25.5388L92.833 23.9713C91.6835 22.7957 90.1161 22.1426 88.1828 22.1426C85.283 22.1426 83.193 24.0497 83.193 26.7144C83.193 32.3312 91.0565 31.234 91.0565 35.4662C91.0565 36.9553 90.0638 38.3138 87.8693 38.3138C86.1712 38.3138 84.7082 37.4517 83.82 36.3806L82.6705 37.9742C83.8461 39.3066 85.5965 40.1687 87.8693 40.1687Z" fill="white"/>
<path d="M100.141 40.1687C103.746 40.1687 105.444 37.8958 105.444 35.3356C105.444 29.4836 97.5806 30.2935 97.5806 26.6099C97.5806 25.0424 98.8085 23.9974 100.402 23.9974C101.787 23.9974 103.067 24.4938 104.007 25.5388L105.105 23.9713C103.955 22.7957 102.388 22.1426 100.454 22.1426C97.5545 22.1426 95.4645 24.0497 95.4645 26.7144C95.4645 32.3312 103.328 31.234 103.328 35.4662C103.328 36.9553 102.335 38.3138 100.141 38.3138C98.4427 38.3138 96.9797 37.4517 96.0915 36.3806L94.942 37.9742C96.1176 39.3066 97.868 40.1687 100.141 40.1687Z" fill="white"/>
<path d="M127.538 35.0762V33.0909H113.051V35.0762H127.538Z" fill="white"/>
<path d="M150.291 39.8659H138.196V36.4696C144.884 30.4609 145.902 29.4421 145.902 27.7701C145.902 26.6729 145.04 25.9152 143.839 25.9152C142.323 25.9152 141.122 26.5684 140.103 27.7701L137.647 25.0792C139.214 23.1721 141.435 22.1794 143.917 22.1794C147.601 22.1794 150.161 24.3739 150.161 27.7178C150.161 30.2258 148.619 32.2897 144.492 36.1823H150.291V39.8659Z" fill="white"/>
<path d="M158.341 40.1794C153.874 40.1794 151.81 35.7904 151.81 31.1663C151.81 26.5422 153.874 22.1794 158.341 22.1794C162.809 22.1794 164.846 26.5422 164.846 31.1663C164.846 35.7904 162.809 40.1794 158.341 40.1794ZM158.341 36.4435C160.013 36.4435 160.562 34.4842 160.562 31.1663C160.562 27.8223 160.013 25.9152 158.341 25.9152C156.643 25.9152 156.095 27.8223 156.095 31.1663C156.095 34.4842 156.643 36.4435 158.341 36.4435Z" fill="white"/>
<path d="M178.636 39.8659H166.54V36.4696C173.228 30.4609 174.247 29.4421 174.247 27.7701C174.247 26.6729 173.385 25.9152 172.183 25.9152C170.668 25.9152 169.466 26.5684 168.447 27.7701L165.991 25.0792C167.559 23.1721 169.779 22.1794 172.261 22.1794C175.945 22.1794 178.505 24.3739 178.505 27.7178C178.505 30.2258 176.964 32.2897 172.836 36.1823H178.636V39.8659Z" fill="white"/>
<path d="M191.414 39.8659H187.182V36.5219H179.998V33.0473L186.006 22.4406H191.414V32.8383H193.112V36.5219H191.414V39.8659ZM187.182 32.8383V26.6467L183.786 32.8383H187.182Z" fill="white"/>
</g>
<defs>
<clipPath id="clip0_2779_26">
<rect width="203.902" height="40" fill="white"/>
</clipPath>
</defs>
</svg>
