<svg id="Ebene_1" xmlns="http://www.w3.org/2000/svg" fill="#ffffff" width="289.41" height="50.5" viewBox="0 0 289.41 50.5"><g><path d="M65.56,15.55h-6.53v16.78c-1.39,1.72-3.44,2.82-5.64,2.82-1.84,0-3.73-.67-4.32-2.57-.49-1.56-.25-3.53-.25-5.15V15.54h-6.53v11.67c0,4.21-.98,10.49,3.49,12.82,4.25,2.22,10.16,.63,13.24-2.82v3.13h6.53V15.54l.02,.02Z"/><path d="M35.74,23.28c0-10.33-7.54-17.73-17.89-17.73S0,12.95,0,23.28s7.54,17.73,17.85,17.73c2.97,0,5.7-.62,8.1-1.7l5.25,6.06,5.08-4.16-4.99-5.81c2.82-3.09,4.47-7.29,4.47-12.14l-.02,.02Zm-17.91,11.27c-6.29,0-10.4-4.81-10.4-11.23s4.05-11.23,10.36-11.23,10.4,4.81,10.4,11.23-4.05,11.23-10.36,11.23Z"/><path d="M153.97,6.24c-.78,.74-1.16,1.65-1.16,2.75s.38,2.03,1.16,2.77c.78,.76,1.68,1.12,2.75,1.12s2.03-.38,2.77-1.12c.76-.76,1.14-1.68,1.14-2.77s-.38-2.01-1.14-2.75-1.68-1.1-2.77-1.1-1.97,.36-2.75,1.1Z"/><path d="M221.8,15.55h-6.62v3.18c-2.28-2.91-5.79-4.25-9.44-3.65-3.73,.6-6.6,3.17-8.01,6.6-2.68,6.49-1.01,16.44,6.51,18.79,4.07,1.27,8.32,0,11-3.31v3.18h6.57V15.55h0Zm-6.57,16.79c-1.65,2.46-5.28,3.47-7.99,2.39-2.88-1.16-4.02-4.3-3.91-7.22,.11-2.62,1.36-5.3,3.91-6.31,2.69-1.09,6.35-.04,7.99,2.41v8.74h0Z"/><path d="M190.78,15.55h-6.57v3.18c-4.47-5.97-14.29-4.83-17.45,2.6-2.73,6.44-.99,16.31,6.51,18.39,4.77,1.32,8.25-.09,10.94-3.44,0,2.86,.25,6.04-2.57,7.72-3.29,1.95-9.26,1.01-12.01-2.03l-2.93,4.72c3.98,3.92,11.43,4.72,17.02,2.71,4.83-1.75,7.09-5.37,7.07-10.91-.04-5.55,0-11.11,0-16.66v-6.31h-.02Zm-6.57,16.03c-1.68,2.42-5.19,3.44-7.94,2.44-2.75-.99-3.92-3.69-3.92-6.44s1.12-5.34,3.74-6.38c2.77-1.1,6.42-.14,8.12,2.37v8.01h0Z"/><path d="M96.6,15.55h-6.62v3.18c-2.28-2.91-5.79-4.25-9.44-3.65-3.73,.6-6.6,3.17-8.01,6.6-2.68,6.49-1.01,16.44,6.51,18.79,4.07,1.27,8.32,0,11-3.31v3.18h6.57V15.55h0Zm-6.57,16.79c-1.65,2.46-5.28,3.47-7.99,2.39-2.88-1.16-4.02-4.3-3.91-7.22,.11-2.62,1.36-5.3,3.91-6.31,2.69-1.09,6.37-.05,7.99,2.41v8.74h0Z"/><path d="M127.62,6.11h-6.57v12.62c-2.28-2.91-5.84-4.25-9.5-3.65-3.73,.6-6.6,3.17-8.01,6.6-2.68,6.49-1.01,16.44,6.51,18.79,4.07,1.27,8.32,0,11-3.31v3.18h6.57V6.11Zm-6.57,26.24c-1.63,2.46-5.3,3.47-7.99,2.39-2.88-1.16-4.02-4.3-3.91-7.22,.11-2.62,1.36-5.32,3.91-6.35,2.69-1.09,6.37-.05,7.99,2.39v8.79h0Z"/><path d="M142.25,22.86c1.9-1.41,4.49-2.04,6.8-1.54v-6.37c-3.04,0-6,1.68-7.9,4v-3.38h-6.51v24.8h6.51V23.98c.27-.42,.63-.78,1.1-1.12h0Z"/><rect x="153.49" y="15.55" width="6.53" height="24.8"/></g><path d="M283.38,23.64c0,9.8-7.96,17.76-17.76,17.76s-17.76-7.94-17.76-17.76,7.96-17.76,17.76-17.76,17.76,7.96,17.76,17.76m6,23.66v-11.03h-3.65s0,0,0,0c2.32-3.65,3.65-7.98,3.65-12.62,0-13.06-10.58-23.64-23.64-23.64s-23.64,10.58-23.64,23.64,10.49,23.64,23.48,23.64h23.82l-.02,.02Z"/></svg>